<svg width="93" height="93" viewBox="0 0 93 93" fill="none" xmlns="http://www.w3.org/2000/svg">
<path d="M42.6537 4.06047L44.0693 12.0968L41.4458 12.5594C38.9522 12.9991 37.1258 11.7615 36.6825 9.2442C36.2391 6.72696 37.5367 4.9628 40.0302 4.5231L42.6537 4.06047ZM40.1863 5.40945C38.3428 5.73454 37.4478 7.08652 37.7933 9.04832C38.143 11.0338 39.4461 11.9981 41.2896 11.673L42.8259 11.4021L41.7226 5.13854L40.1863 5.40945Z" fill="white"/>
<path d="M25.1444 12.1145C24.758 10.6358 25.361 9.48972 26.645 8.81182C28.2793 7.94904 29.8483 8.53192 30.8167 10.3682C31.8243 12.2788 31.3916 13.8507 29.8104 14.6854C28.2186 15.5258 26.687 14.9367 25.741 13.1429L25.6178 12.9094L29.7777 10.7132C29.0585 9.47811 28.0892 9.08068 27.0705 9.61852C26.2746 10.0387 25.9137 10.7178 26.1207 11.5991L25.1444 12.1145ZM29.385 13.8787C30.287 13.4025 30.5315 12.5542 30.1153 11.4306L26.9636 13.0945C27.6395 14.0675 28.5042 14.3438 29.385 13.8787Z" fill="white"/>
<path d="M21.5181 18.1899C20.2787 16.9178 18.3367 20.8571 16.5028 18.9748C15.6737 18.1239 15.9021 16.8451 16.9759 15.7977C18.0583 14.742 19.3167 14.5203 20.5353 15.4271L19.7793 16.1645C19.0565 15.629 18.2407 15.7374 17.5363 16.4245C16.8491 17.0948 16.7898 17.7562 17.2085 18.1859C18.4227 19.4322 20.3471 15.5436 22.1895 17.4345C22.8678 18.1306 22.9463 19.2945 21.8295 20.3838C20.8416 21.3474 19.6593 21.5955 18.4078 20.6034L19.1638 19.866C19.9705 20.4705 20.6253 20.3515 21.2695 19.7231C21.8365 19.1701 21.8866 18.568 21.5181 18.1899Z" fill="white"/>
<path d="M16.976 27.2763L18.1764 28.0274L17.6167 28.9229L16.4164 28.1718L16.976 27.2763ZM10.852 23.4446L16.2538 26.8244L15.6941 27.7199L10.2923 24.3401L10.852 23.4446Z" fill="white"/>
<path d="M6.2646 32.8079C6.77327 31.2698 8.25183 30.7355 10.1884 31.3766C12.2162 32.048 13.0085 33.3595 12.5073 34.8748C12.2398 35.6837 11.7553 36.1932 11.0994 36.4185L11.7601 36.6372L11.4286 37.6398L5.19722 35.5767C3.51123 35.0185 3.08314 33.6759 3.54283 32.286C4.01382 30.8618 5.0289 30.0855 6.47891 30.3254L6.14733 31.328C5.30845 31.1893 4.66833 31.6726 4.3782 32.5499C4.0843 33.4386 4.36683 34.1894 5.49462 34.5628L6.53128 34.906C6.1011 34.2959 6.00838 33.5826 6.2646 32.8079ZM7.07009 33.2768C6.71968 34.3364 7.32871 35.1701 8.78687 35.6528C10.2109 36.1243 11.2384 35.8072 11.5813 34.7704C11.9279 33.7222 11.3189 32.8886 9.84933 32.402C8.42535 31.9306 7.41297 32.24 7.07009 33.2768Z" fill="white"/>
<path d="M4.14626 42.5155L10.5149 42.7221L10.4807 43.7776L9.61716 43.7495C10.2748 44.2031 10.6001 44.91 10.5729 45.7496C10.5289 47.1049 9.71131 47.8828 8.23609 47.8349L3.97833 47.6967L4.01254 46.6413L8.05441 46.7724C9.0139 46.8036 9.65157 46.392 9.68267 45.4325C9.71688 44.3771 8.78959 43.7227 7.87807 43.6931L4.11205 43.5709L4.14626 42.5155Z" fill="white"/>
<path d="M4.66859 63.9592C4.56507 63.7427 4.5105 63.4894 4.48605 63.3548L5.22209 63.0025L5.36184 63.2949C5.69825 63.9986 5.93213 64.1261 7.48935 64.0726L8.02631 64.0551L12.4669 59.0431L12.9585 60.0716L9.90452 63.4489L9.26022 64.0765L10.153 63.9686L14.6769 63.666L15.1427 64.6404L7.35373 65.0688C5.69392 65.1581 5.14475 64.9553 4.66859 63.9592Z" fill="white"/>
<path d="M14.8167 75.0524C13.5962 73.6969 13.7925 72.0498 15.3346 70.6599C16.939 69.2137 18.5762 69.2566 19.7726 70.5853C20.993 71.9409 20.7789 73.604 19.2369 74.994C17.6414 76.4321 16.0131 76.3812 14.8167 75.0524ZM15.4941 74.4418C16.289 75.3247 17.3555 75.2358 18.5142 74.1914C19.6641 73.1549 19.882 72.0699 19.0951 71.196C18.3002 70.3131 17.2249 70.41 16.0572 71.4625C14.9163 72.4909 14.7072 73.5679 15.4941 74.4418Z" fill="white"/>
<path d="M26.8707 81.2945L28.8405 78.0824L29.7404 78.6349L26.4093 84.0668L25.5093 83.5143L25.961 82.7778C25.2416 83.1246 24.4932 83.0595 23.7876 82.6263C22.6525 81.9294 22.3853 80.8501 23.1569 79.5918L25.384 75.9603L26.2839 76.5128L24.1698 79.9602C23.6679 80.7786 23.7059 81.52 24.5035 82.0097C25.383 82.5497 26.3939 82.072 26.8707 81.2945Z" fill="white"/>
<path d="M32.9146 86.846L34.7183 80.7346L35.7311 81.0338L35.4525 81.9776C36.0876 81.3519 36.8455 81.2004 37.582 81.418C37.8237 81.4894 38.0253 81.6116 38.1132 81.7377L37.8449 82.6469C37.6893 82.5383 37.4774 82.4507 37.2357 82.3793C36.0159 82.0189 35.2623 82.6221 34.9362 83.727L33.9273 87.1452L32.9146 86.846Z" fill="white"/>
<path d="M53.3824 88.6449C51.7142 88.9272 50.5005 87.8668 50.1546 85.8198C49.7947 83.69 50.6261 82.3444 52.2707 82.0662C53.0161 81.9401 53.6715 82.1457 54.1836 82.6554L53.6817 79.6855L54.7229 79.5093L56.1626 88.0286L55.1214 88.2047L54.9874 87.4119C54.6733 88.0736 54.1279 88.5188 53.3824 88.6449ZM53.3015 87.7337C54.4018 87.5475 54.8515 86.6073 54.5915 85.0692C54.3336 83.5428 53.5704 82.7713 52.4937 82.9535C51.4051 83.1376 50.9575 84.0896 51.2194 85.6396C51.4754 87.1542 52.2366 87.9138 53.3015 87.7337Z" fill="white"/>
<path d="M62.7709 85.8628L60.1117 80.0722L61.0712 79.6311L61.4818 80.5253C61.5488 79.636 62.02 79.0232 62.7178 78.7024C62.9468 78.5971 63.179 78.5564 63.3281 78.5935L63.7237 79.455C63.5351 79.4757 63.318 79.5491 63.089 79.6543C61.9333 80.1857 61.7623 81.136 62.243 82.1829L63.7304 85.4217L62.7709 85.8628Z" fill="white"/>
<path d="M74.577 75.8002C75.2609 77.167 74.9081 78.4131 73.7921 79.3421C72.3718 80.5244 70.7162 80.2787 69.3889 78.6825C68.0079 77.0216 68.1061 75.3942 69.4802 74.2503C70.8637 73.0987 72.484 73.3581 73.7806 74.9175L73.9494 75.1205L70.334 78.1299C71.2931 79.1896 72.3236 79.3778 73.209 78.6408C73.9007 78.065 74.1134 77.326 73.7285 76.5065L74.577 75.8002ZM70.0633 74.9515C69.2794 75.6041 69.2157 76.4846 69.8553 77.4979L72.5945 75.2178C71.7319 74.4057 70.8288 74.3143 70.0633 74.9515Z" fill="white"/>
<path d="M77.3446 69.1924L76.7575 70.0702C75.7043 69.1195 75.5299 67.8908 76.3971 66.5941C77.3444 65.1776 78.6324 65.0435 79.8688 65.8713L81.9528 67.2666C82.5611 67.6739 82.9734 67.8777 83.3559 67.9317L82.7355 68.8593C82.4594 68.8189 82.1303 68.6418 81.8045 68.4382C82.1724 69.3344 81.9813 70.2461 81.5543 70.8845C80.8205 71.9818 79.8183 72.3794 78.8112 71.7051C78.0833 71.2178 77.8216 70.4649 78.0827 69.5133C78.3237 68.6349 78.7509 67.8667 79.4214 66.8426L79.3017 66.7625C78.4442 66.1883 77.7087 66.2735 77.1016 67.1812C76.5946 67.9393 76.7399 68.6287 77.3446 69.1924ZM79.3916 70.794C79.8802 71.1212 80.4429 70.9058 80.8565 70.2874C81.5103 69.3098 81.2362 68.0576 80.3288 67.4501L80.0795 67.2832C78.5918 69.5509 78.7435 70.3601 79.3916 70.794Z" fill="white"/>
<path d="M86.485 61.7523L80.3189 60.1458L80.5848 59.1239L81.3745 59.3296C80.8501 58.7714 80.6968 58.0742 80.8932 57.3193C81.1138 56.4716 81.6456 55.9529 82.4411 55.8501C81.8269 55.2561 81.6306 54.4857 81.8452 53.6612C82.1716 52.4069 83.1345 51.8518 84.5628 52.2239L88.6852 53.2979L88.4192 54.3198L84.5059 53.3003C83.5769 53.0583 82.8763 53.2726 82.6587 54.1087C82.4169 55.0378 83.1893 55.8342 84.0718 56.0641L87.7181 57.0141L87.4521 58.036L83.5388 57.0165C82.6098 56.7745 81.9092 56.9888 81.6916 57.8249C81.4498 58.754 82.2222 59.5504 83.1047 59.7804L86.751 60.7303L86.485 61.7523Z" fill="white"/>
<path d="M88.1782 37.6862L79.8555 40.0061L79.5723 38.9888L82.5892 38.1478C81.826 37.9121 81.3041 37.335 81.0788 36.5258C80.7151 35.2195 81.2623 34.2323 82.6841 33.836L86.7877 32.6921L87.071 33.7094L83.1755 34.7953C82.2507 35.0531 81.7655 35.6368 82.023 36.5616C82.3063 37.5789 83.3868 37.9255 84.2653 37.6806L87.895 36.6689L88.1782 37.6862Z" fill="white"/>
<path d="M82.7132 23.9739C83.6799 25.5206 83.2007 27.1086 81.4408 28.2098C79.6097 29.3555 78.0047 29.0291 77.0571 27.5129C76.0904 25.9661 76.5899 24.3654 78.3498 23.2642C80.1708 22.1249 81.7656 22.4577 82.7132 23.9739ZM81.9401 24.4576C81.3104 23.4502 80.2447 23.3526 78.9222 24.1801C77.6099 25.0012 77.207 26.0319 77.8302 27.0291C78.4599 28.0365 79.5358 28.1278 80.8684 27.2939C82.1705 26.4792 82.5633 25.4549 81.9401 24.4576Z" fill="white"/>
<path d="M76.768 16.3141L72.7778 21.2821L71.9548 20.6204L72.4658 19.9842C71.742 20.2337 71.0435 20.0878 70.4356 19.599C69.7529 19.0501 69.4978 18.3522 69.7299 17.5841C68.9367 17.901 68.1538 17.7643 67.4898 17.2304C66.4798 16.4183 66.3679 15.312 67.2922 14.1612L69.9598 10.8399L70.7828 11.5016L68.2504 14.6546C67.6492 15.403 67.5577 16.1302 68.2311 16.6716C68.9792 17.2731 70.0218 16.895 70.5929 16.1839L72.9524 13.2462L73.7754 13.9079L71.243 17.0608C70.6418 17.8093 70.5503 18.5364 71.2237 19.0778C71.9718 19.6794 73.0143 19.3012 73.5854 18.5902L75.945 15.6524L76.768 16.3141Z" fill="white"/>
<path d="M57.3907 7.48938C58.2173 6.20419 59.4687 5.87283 60.8366 6.35996C62.5775 6.97995 63.2105 8.53017 62.5147 10.4861C61.7908 12.5212 60.3413 13.266 58.6569 12.6662C56.9612 12.0623 56.3581 10.5355 57.0378 8.62477L57.1263 8.37604L61.5576 9.95418C61.9797 8.58864 61.6161 7.6057 60.5309 7.21921C59.6831 6.91727 58.9391 7.11092 58.4308 7.85976L57.3907 7.48938ZM58.9626 11.8069C59.9235 12.1491 60.7132 11.7552 61.2583 10.6883L57.9008 9.49261C57.6423 10.6489 58.0243 11.4728 58.9626 11.8069Z" fill="white"/>
<path d="M51.6578 4.33525L51.525 5.62443L50.2359 5.49154L50.3686 4.20236L51.6578 4.33525Z" fill="white"/>
</svg>
