<svg width="51" height="50" viewBox="0 0 51 50" fill="none" xmlns="http://www.w3.org/2000/svg">
<path d="M42.25 43.7503H8.75C7.64543 43.7503 6.75 42.8549 6.75 41.7503V18.667C6.75 17.5624 7.64543 16.667 8.75 16.667H42.25C43.3546 16.667 44.25 17.5624 44.25 18.667V41.7503C44.25 42.8549 43.3546 43.7503 42.25 43.7503Z" stroke="black"/>
<path d="M15.0833 16.6663V8.93301C15.0833 8.60164 15.3519 8.33301 15.6833 8.33301H35.3166C35.648 8.33301 35.9166 8.60164 35.9166 8.93301V16.6663" stroke="black"/>
<path d="M21.3333 8.33301V16.6663" stroke="black"/>
<path d="M25.5 8.33301V16.6663" stroke="black"/>
<path d="M34.8751 31.2503C34.2998 31.2503 33.8334 30.784 33.8334 30.2087C33.8334 29.6334 34.2998 29.167 34.8751 29.167C35.4504 29.167 35.9167 29.6334 35.9167 30.2087C35.9167 30.784 35.4504 31.2503 34.8751 31.2503Z" fill="black" stroke="black" stroke-linecap="round" stroke-linejoin="round"/>
</svg>
