<svg width="51" height="50" viewBox="0 0 51 50" fill="none" xmlns="http://www.w3.org/2000/svg">
<path d="M16.9167 39.5833C19.2179 39.5833 21.0833 37.7179 21.0833 35.4167C21.0833 33.1155 19.2179 31.25 16.9167 31.25C14.6155 31.25 12.75 33.1155 12.75 35.4167C12.75 37.7179 14.6155 39.5833 16.9167 39.5833Z" stroke="black" stroke-miterlimit="1.5" stroke-linecap="round" stroke-linejoin="round"/>
<path d="M37.7499 39.5833C40.0511 39.5833 41.9166 37.7179 41.9166 35.4167C41.9166 33.1155 40.0511 31.25 37.7499 31.25C35.4487 31.25 33.5833 33.1155 33.5833 35.4167C33.5833 37.7179 35.4487 39.5833 37.7499 39.5833Z" stroke="black" stroke-miterlimit="1.5" stroke-linecap="round" stroke-linejoin="round"/>
<path d="M21.1874 35.4167H31.4999V13.1C31.4999 12.7686 31.2313 12.5 30.8999 12.5H2.33325" stroke="black" stroke-linecap="round"/>
<path d="M12.0208 35.4178H7.1C6.76863 35.4178 6.5 35.1492 6.5 34.8178V23.9595" stroke="black" stroke-linecap="round"/>
<path d="M4.41675 18.75L12.7501 18.75" stroke="black" stroke-linecap="round" stroke-linejoin="round"/>
<path d="M31.5 18.75H43.6101C43.8472 18.75 44.0621 18.8896 44.1584 19.1063L48.115 28.0086C48.1491 28.0854 48.1667 28.1684 48.1667 28.2523V34.8167C48.1667 35.148 47.898 35.4167 47.5667 35.4167H42.9583" stroke="black" stroke-linecap="round"/>
<path d="M31.5 35.4155H33.5833" stroke="black" stroke-linecap="round"/>
</svg>
