<svg width="51" height="50" viewBox="0 0 51 50" fill="none" xmlns="http://www.w3.org/2000/svg">
<path d="M6.5 14.583L25.25 22.9163M44 14.583L25.25 22.9163M25.25 45.833V22.9163" stroke="black" stroke-linejoin="round"/>
<path d="M6.5 37.1101V14.9733C6.5 14.7361 6.63964 14.5213 6.85632 14.425L25.0063 6.3583C25.1615 6.28935 25.3385 6.28935 25.4937 6.3583L43.6437 14.425C43.8604 14.5213 44 14.7361 44 14.9733V37.1101C44 37.3472 43.8604 37.5621 43.6437 37.6584L25.4937 45.725C25.3385 45.794 25.1615 45.794 25.0063 45.725L6.85632 37.6584C6.63964 37.5621 6.5 37.3472 6.5 37.1101Z" stroke="black" stroke-linecap="round" stroke-linejoin="round"/>
<path d="M15.875 10.417L34.2687 18.592C34.4854 18.6883 34.625 18.9031 34.625 19.1402V27.0837" stroke="black" stroke-linecap="round" stroke-linejoin="round"/>
</svg>
