<svg width="51" height="50" viewBox="0 0 51 50" fill="none" xmlns="http://www.w3.org/2000/svg">
<path d="M43.7006 11.5356V15.7023H39.5339H43.7006" stroke="black" stroke-linecap="round" stroke-linejoin="round"/>
<path d="M16.3062 22.3517C16.3062 20.6621 17.677 19.2913 19.3666 19.2913C21.0562 19.2913 22.427 20.6621 22.427 22.3517C22.427 26.1767 16.3082 26.1767 16.3082 30.7058H22.427" stroke="black" stroke-linecap="round" stroke-linejoin="round"/>
<path d="M33.6125 25.0625L28.3792 25.0062C28.0833 25.002 27.8438 24.7625 27.8438 24.4645V19.2937" stroke="black" stroke-linecap="round" stroke-linejoin="round"/>
<path d="M33.6034 19.4172V30.7089" stroke="black" stroke-linecap="round" stroke-linejoin="round"/>
<path d="M42.7916 15.7038C39.452 9.65799 32.9624 5.55591 25.4999 5.55591C14.7603 5.55591 6.05615 14.2622 6.05615 24.9997C6.05615 35.7372 14.7603 44.4434 25.4999 44.4434C36.2395 44.4434 44.9437 35.7372 44.9437 24.9997" stroke="black" stroke-linecap="round" stroke-linejoin="round"/>
</svg>
